# xmcd
#
# Track frame offsets:
#	150
#	22062
#	35925
#	52237
#	63530
#	78797
#	94115
#	107810
#	120482
#	133550
#
# Disc length: 2072
#
# Revision: 3
# Processed by: cddbd v1.5.1PL0 Copyright (c) Steve Scherf et al.
# Submitted via: DiscPlay 4.0.4
# Normalized: r1:DSETVAR1,TDELIM( - );r2:TSWAP
#
DISCID=8b08160a
DTITLE=Various Artist - All-Star Country Volume 2
DYEAR=1900
DGENRE=
TTITLE0=Charlie Daniels - Tennessee Two Step
TTITLE1=Ricky Lynn Gregg - If I Had A Cheatin' Heart
TTITLE2=Billy Dean - Tryin' To Hide A Fire In The Dark
TTITLE3=Chris LeDoux - Under This Old Hat
TTITLE4=John Berry - A Mind Of Her Own
TTITLE5=Highway 101 - You Baby You
TTITLE6=Tanya Tucker - If Your Heart Ain't Busy Tonight
TTITLE7=Pirates Of The Mississippi - Dream You
TTITLE8=Suzy Bogguss - Outbound Plane
TTITLE9=Ronnie Milsap - True Believer
EXTD=
EXTT0=
EXTT1=
EXTT2=
EXTT3=
EXTT4=
EXTT5=
EXTT6=
EXTT7=
EXTT8=
EXTT9=
PLAYORDER=
